<?xml version="1.0" encoding="utf-8"?>
<!-- Generator: Adobe Illustrator 24.1.3, SVG Export Plug-In . SVG Version: 6.00 Build 0)  -->
<svg version="1.1" id="Layer_1" xmlns="http://www.w3.org/2000/svg" xmlns:xlink="http://www.w3.org/1999/xlink" x="0px" y="0px"
	 viewBox="0 0 200 200" style="enable-background:new 0 0 200 200;" xml:space="preserve">
<g>
	<path d="M1.3,106V94.4c0.1-0.7,0.3-1.3,0.4-2c0.6-4.3,0.9-8.6,1.8-12.7c5.2-23.8,17.4-43.2,36.7-57.8c23.9-18,50.8-24,80.1-18
		c23.8,4.9,43.2,17.4,57.8,36.7c16.5,21.6,22.8,46,19.3,72.9c-2.2,17.3-9.2,33.7-20.1,47.3c-15.5,19.7-35.7,31.7-60.3,36.3
		c-3.8,0.7-7.6,1.1-11.4,1.6H94.1l-1.9-0.3c-4.2-0.6-8.4-1-12.5-1.9c-24.1-5.2-43.6-17.5-58.5-37.2c-9.5-12.5-15.8-27.1-18.4-42.5
		C2.1,113.2,1.8,109.6,1.3,106z M71.2,105.5C59.5,94.9,54.6,78.7,58.5,63.4c1.9-7.5,5.8-14.4,11.3-19.8
		c15.7-15.4,39.4-16.6,56.8-2.8c7.9,6.1,13.3,14.9,15.1,24.7c2.9,15.6-1.9,28.9-13.2,40.1c22.4,9.4,37.6,25.3,46,47.9
		c25.9-35.4,24-89.9-15.4-123.5c-37.6-32-93.8-28.4-127,8.1c-33.5,36.5-28.8,86.6-6.9,115.3C33.6,130.8,48.9,114.9,71.2,105.5z
		 M99.8,192.1h4.2c1.7,0,3.3-0.1,5-0.3c23.6-2.7,43.4-12.8,59.4-30.3c0.9-0.8,1.1-2,0.7-3.1c-7.6-23.1-22.7-39-45.5-47.4
		c-0.9-0.3-1.9-0.2-2.8,0.2c-14,7.3-27.9,7.4-41.8,0.1c-0.9-0.5-2-0.5-3-0.2c-22.8,8.4-37.9,24.3-45.4,47.4c-0.4,1-0.2,2.2,0.6,2.9
		C49.6,181.5,72.6,191.6,99.8,192.1z M99.9,109.9c19.9,1,36.9-14.3,37.9-34.3s-14.3-36.9-34.3-37.9c-1.3-0.1-2.5-0.1-3.8,0
		c-19.8,0.1-36.2,16.5-36,36.2C63.8,93.9,80,110,99.9,109.9z"/>
</g>
</svg>
