<svg xmlns="http://www.w3.org/2000/svg" width="58.097" height="58.097" viewBox="0 0 58.097 58.097">
  <path id="Icon_awesome-user-circle" data-name="Icon awesome-user-circle" d="M29.048.562A29.048,29.048,0,1,0,58.1,29.611,29.043,29.043,0,0,0,29.048.562Zm0,11.245A10.307,10.307,0,1,1,18.741,22.114,10.308,10.308,0,0,1,29.048,11.807Zm0,40.293a22.445,22.445,0,0,1-17.16-7.988,13.059,13.059,0,0,1,11.537-7,2.866,2.866,0,0,1,.832.129,15.508,15.508,0,0,0,4.791.808,15.449,15.449,0,0,0,4.791-.808,2.866,2.866,0,0,1,.832-.129,13.059,13.059,0,0,1,11.537,7A22.445,22.445,0,0,1,29.048,52.1Z" transform="translate(0 -0.563)" fill="#fff"/>
</svg>
