<?xml version="1.0" encoding="iso-8859-1"?>
<!-- Uploaded to: SVG Repo, www.svgrepo.com, Generator: SVG Repo Mixer Tools -->
<svg  width="177" height="196" version="1.1" id="Layer_1" xmlns="http://www.w3.org/2000/svg" xmlns:xlink="http://www.w3.org/1999/xlink" 
	 viewBox="0 0 508 508" xml:space="preserve">
<g>
	<path style="fill:#4BB19B;" d="M47.6,418.8C24.8,418.8,6,437.6,6,460.4S24.8,502,47.6,502s41.6-18.8,41.6-41.6
		C89.2,437.6,70.4,418.8,47.6,418.8z"/>
	<path style="fill:#4BB19B;" d="M321.6,418.8c-22.8,0-41.6,18.8-41.6,41.6s18.8,41.6,41.6,41.6s41.6-18.8,41.6-41.6
		C362.8,437.6,344.4,418.8,321.6,418.8z"/>
	<path style="fill:#4BB19B;" d="M47.6,145.2C24.8,145.2,6,164,6,186.8c0,22.8,18.8,41.6,41.6,41.6s41.6-18.8,41.6-41.6
		C89.2,163.6,70.4,145.2,47.6,145.2z"/>
	<path style="fill:#4BB19B;" d="M321.6,145.2c-22.8,0-41.6,18.8-41.6,41.6c0,22.8,18.8,41.6,41.6,41.6s41.6-18.8,41.6-41.6
		C362.8,163.6,344.4,145.2,321.6,145.2z"/>
</g>
<path style="fill:#61C2AB;" d="M186.4,280c-22.8,0-41.6,18.8-41.6,41.6c0,22.8,18.8,41.6,41.6,41.6s41.6-18.8,41.6-41.6
	C228,298.4,209.6,280,186.4,280z"/>
<g>
	<path style="fill:#4BB19B;" d="M460.4,280c-22.8,0-41.6,18.8-41.6,41.6c0,22.8,18.8,41.6,41.6,41.6c22.8,0,41.6-18.8,41.6-41.6
		C502,298.4,483.2,280,460.4,280z"/>
	<path style="fill:#4BB19B;" d="M186.4,6c-22.8,0-41.6,18.8-41.6,41.6c0,22.8,18.8,41.6,41.6,41.6S228,70.4,228,47.6
		S209.6,6,186.4,6z"/>
	<path style="fill:#4BB19B;" d="M460.4,6c-22.8,0-41.6,18.8-41.6,41.6c0,22.8,18.8,41.6,41.6,41.6c22.8,0,41.6-18.8,41.6-41.6
		S483.2,6,460.4,6z"/>
</g>
<path d="M47.6,508C21.2,508,0,486.8,0,460.4s21.2-47.6,47.6-47.6c26.4,0,47.6,21.2,47.6,47.6C95.2,486.8,73.6,508,47.6,508z
	 M47.6,420.8c-22,0-39.6,17.6-39.6,39.6S25.6,500,47.6,500s39.6-17.6,39.6-39.6S69.2,420.8,47.6,420.8z"/>
<path d="M321.6,508c-26.4,0-47.6-21.2-47.6-47.6s21.2-47.6,47.6-47.6c26.4,0,47.6,21.2,47.6,47.6C368.8,486.8,347.6,508,321.6,508z
	 M321.6,420.8c-22,0-39.6,17.6-39.6,39.6s17.6,39.6,39.6,39.6s39.6-17.6,39.6-39.6S343.2,420.8,321.6,420.8z"/>
<path d="M278,464H94c-2.4,0-4-1.6-4-4s1.6-4,4-4h184c2.4,0,4,1.6,4,4S280.4,464,278,464z"/>
<path d="M274,192H94c-2.4,0-4-1.6-4-4s1.6-4,4-4h180c2.4,0,4,1.6,4,4S276.4,192,274,192z"/>
<path d="M47.6,234C21.2,234,0,212.8,0,186.4s21.2-47.6,47.6-47.6c26.4,0,47.6,21.2,47.6,47.6C95.2,212.8,73.6,234,47.6,234z
	 M47.6,147.2c-22,0-39.6,17.6-39.6,39.6s17.6,39.6,39.6,39.6s39.6-17.6,39.6-39.6S69.2,147.2,47.6,147.2z"/>
<path d="M48,418c-2.4,0-4-1.6-4-4V234c0-2.4,1.6-4,4-4s4,1.6,4,4v180C52,416.4,50.4,418,48,418z"/>
<path d="M321.6,234c-26.4,0-47.6-21.2-47.6-47.6s21.2-47.6,47.6-47.6c26.4,0,47.6,21.2,47.6,47.6C368.8,212.8,347.6,234,321.6,234z
	 M321.6,147.2c-22,0-39.6,17.6-39.6,39.6s17.6,39.6,39.6,39.6s39.6-17.6,39.6-39.6S343.2,147.2,321.6,147.2z"/>
<path d="M320,418c-2.4,0-4-1.6-4-4V234c0-2.4,1.6-4,4-4s4,1.6,4,4v180C324,416.4,322.4,418,320,418z"/>
<path d="M184.4,368.8c-2.4,0-4-2-4-4l0,0c0-2.4,2-4,4-4l0,0c2.4,0,4,2,4,4.4l0,0C188.4,367.2,186.4,368.8,184.4,368.8L184.4,368.8
	L184.4,368.8z M200,363.2c-0.8-2,0-4.4,2-5.2l0,0c2-0.8,4.4,0,5.2,2l0,0c0.8,2,0,4.4-2,5.2l0,0c-0.4,0-1.2,0.4-1.6,0.4l0,0
	C202.4,365.6,200.8,364.4,200,363.2z M163.6,363.2c-2-1.2-2.8-3.6-1.6-5.6l0,0c1.2-2,3.6-2.8,5.6-1.6l0,0c2,1.2,2.8,3.6,1.6,5.6l0,0
	c-0.8,1.2-2,2-3.6,2l0,0C164.8,363.6,164,363.2,163.6,363.2z M217.2,352.8c-1.6-1.6-2-4-0.4-5.6l0,0c1.6-1.6,4-2,5.6-0.4l0,0
	c1.6,1.6,2,4,0.4,5.6l0,0l0,0l0,0c-0.8,0.8-2,1.2-3.2,1.2l0,0C218.8,353.6,217.6,353.6,217.2,352.8z M147.6,348.8
	c-1.2-2-0.8-4.4,1.2-5.6l0,0c1.6-1.2,4.4-0.8,5.6,1.2l0,0c1.2,1.6,0.8,4.4-0.8,5.6l0,0c-0.8,0.4-1.6,0.8-2.4,0.8l0,0
	C149.6,350.4,148.4,350,147.6,348.8z M227.6,336c-2-0.4-3.6-2.8-2.8-4.8l0,0c0.4-2,2.8-3.6,4.8-2.8l0,0c2,0.4,3.6,2.8,2.8,4.8l0,0
	c-0.4,2-2,3.2-4,3.2l0,0C228.4,336.4,228,336.4,227.6,336z M139.6,328.8L139.6,328.8L139.6,328.8c-0.4-2,1.2-4,3.2-4.4l0,0
	c2-0.4,4.4,1.2,4.4,3.2l0,0c0.4,2-1.2,4-3.2,4.4l0,0c-0.4,0-0.4,0-0.8,0l0,0C141.6,332,140,330.8,139.6,328.8z M225.2,313.6
	c-0.4-2,0.8-4.4,3.2-4.8l0,0c2-0.4,4.4,0.8,4.8,3.2l0,0c0.4,2-0.8,4.4-3.2,4.8l0,0c-0.4,0-0.4,0-0.8,0l0,0
	C227.2,316.8,225.6,315.2,225.2,313.6z M143.6,312.4c-2-0.8-3.2-2.8-2.8-5.2l0,0c0.8-2,2.8-3.2,5.2-2.8l0,0c2,0.8,3.2,2.8,2.4,5.2
	l0,0c-0.4,1.6-2,2.8-4,2.8l0,0C144.4,312.4,144,312.4,143.6,312.4z M217.6,297.2L217.6,297.2c-1.2-1.6-1.2-4.4,0.8-5.6l0,0
	c1.6-1.2,4.4-1.2,5.6,0.8l0,0l0,0l0,0c1.2,1.6,1.2,4.4-0.8,5.6l0,0c-0.8,0.4-1.6,0.8-2.4,0.8l0,0
	C219.6,298.8,218.4,298.4,217.6,297.2z M152,294.4c-1.6-1.6-1.6-4-0.4-5.6l0,0c1.6-1.6,4-1.6,5.6,0l0,0c1.6,1.6,1.6,4,0,5.6l0,0
	c-0.8,0.8-2,1.2-2.8,1.2l0,0C154,295.6,152.8,295.2,152,294.4z M204,286L204,286c-2-0.8-2.8-3.2-1.6-5.2l0,0c0.8-2,3.2-2.8,5.2-2
	l0,0c2,1.2,2.8,3.6,2,5.2l0,0c-0.8,1.6-2,2.4-3.6,2.4l0,0C205.2,286.4,204.4,286,204,286z M167.6,282c-0.8-2,0.4-4.4,2.4-5.2l0,0
	l0,0l0,0c2-0.8,4.4,0.4,5.2,2.4l0,0c0.8,2-0.4,4.4-2.4,5.2l0,0c-0.4,0-0.8,0.4-1.6,0.4l0,0C169.6,284.8,168,283.6,167.6,282z
	 M182.4,278c0-2,2-4,4-4l0,0c2.4,0,4,2,4,4l0,0c0,2-1.6,4-4,4l0,0C184.4,282,182.4,280,182.4,278z"/>
<path d="M460.4,368.8c-26.4,0-47.6-21.2-47.6-47.6s21.2-47.6,47.6-47.6s47.6,21.2,47.6,47.6C508,347.6,486.8,368.8,460.4,368.8z
	 M460.4,282c-22,0-39.6,17.6-39.6,39.6s17.6,39.6,39.6,39.6s39.6-17.6,39.6-39.6S482.4,282,460.4,282z"/>
<path d="M234,321.6c0-2,1.6-4,4-4l0,0c2.4,0,4,1.6,4,4l0,0c0,2-1.6,4-4,4l0,0l0,0l0,0C235.6,325.2,234,323.6,234,321.6z M250,321.2
	c0-2,1.6-4,4-4l0,0c2.4,0,4,1.6,4,4l0,0c0,2.4-1.6,4-4,4l0,0l0,0l0,0C251.6,325.2,250,323.6,250,321.2z M266,321.2c0-2,1.6-4,4-4
	l0,0c2,0,4,1.6,4,4l0,0c0,2.4-1.6,4-4,4l0,0l0,0l0,0C268,325.2,266,323.2,266,321.2z M282,321.2c0-2.4,1.6-4,4-4l0,0c2,0,4,1.6,4,4
	l0,0c0,2-1.6,4-4,4l0,0l0,0l0,0C284,325.2,282,323.2,282,321.2z M298,320.8c0-2,1.6-4,4-4l0,0c2,0,4,1.6,4,4l0,0c0,2-1.6,4-4,4l0,0
	l0,0l0,0C300,324.8,298,323.2,298,320.8z M314,320.8c0-2.4,1.6-4,4-4l0,0c2,0,4,1.6,4,4l0,0c0,2.4-1.6,4-4,4l0,0l0,0l0,0
	C316,324.8,314,323.2,314,320.8z M330,320.8c0-2,1.6-4,4-4l0,0c2,0,4,1.6,4,4l0,0c0,2.4-1.6,4-4,4l0,0l0,0l0,0
	C332,324.8,330,322.8,330,320.8z M346,320.4c0-2.4,1.6-4,4-4l0,0c2,0,4,1.6,4,4l0,0c0,2-1.6,4-4,4l0,0l0,0l0,0
	C348,324.4,346,322.8,346,320.4z M362,320.4c0-2,1.6-4,4-4l0,0c2.4,0,4,1.6,4,4l0,0c0,2-1.6,4-4,4l0,0l0,0l0,0
	C364,324.4,362,322.4,362,320.4z M378,320.4c0-2,1.6-4,4-4l0,0c2,0,4,1.6,4,4l0,0c0,2-1.6,4-4,4l0,0l0,0l0,0
	C380,324.4,378,322.4,378,320.4z M394,320c0-2,1.6-4,4-4l0,0c2,0,4,1.6,4,4l0,0c0,2.4-1.6,4-4,4l0,0l0,0l0,0
	C396,324,394,322.4,394,320z M410,320c0-2.4,1.6-4,4-4l0,0c2,0,4,1.6,4,4l0,0c0,2-1.6,4-4,4l0,0l0,0l0,0C412,324,410,322.4,410,320z
	"/>
<path d="M414,52H234c-2.4,0-4-1.6-4-4s1.6-4,4-4h180c2.4,0,4,1.6,4,4S416.4,52,414,52z"/>
<path d="M186.4,95.2c-26.4,0-47.6-21.2-47.6-47.6S160,0,186.4,0C212.8,0,234,21.2,234,47.6C234,73.6,212.8,95.2,186.4,95.2z
	 M186.4,8c-22,0-39.6,17.6-39.6,39.6s17.6,39.6,39.6,39.6S226,69.6,226,47.6S208.4,8,186.4,8z"/>
<path d="M184,270c0-2,1.6-4,4-4l0,0c2,0,4,2,4,4l0,0c0,2-2,4-4,4l0,0C185.6,274,184,272,184,270z M184,254c0-2.4,1.6-4,4-4l0,0
	c2,0,4,1.6,4,4l0,0c0,2-2,4-4,4l0,0C185.6,258,184,256,184,254z M184,238c0-2.4,1.6-4,4-4l0,0c2,0,4,1.6,4,4l0,0c0,2-2,4-4,4l0,0
	C185.6,242,184,240,184,238z M184,222c0-2.4,1.6-4,4-4l0,0c2,0,4,1.6,4,4l0,0c0,2-2,4-4,4l0,0C185.6,226,184,224,184,222z M184,206
	c0-2.4,1.6-4,4-4l0,0c2,0,4,1.6,4,4l0,0c0,2-2,4-4,4l0,0C185.6,210,184,208,184,206z M184,190c0-2.4,1.6-4,4-4l0,0c2,0,4,1.6,4,4
	l0,0c0,2-2,4-4,4l0,0C185.6,194,184,192,184,190z M184,174c0-2.4,1.6-4,4-4l0,0c2,0,4,1.6,4,4l0,0c0,2-2,4-4,4l0,0
	C185.6,178,184,176,184,174z M184,158c0-2.4,1.6-4,4-4l0,0c2,0,4,1.6,4,4l0,0c0,2-2,4-4,4l0,0C185.6,162,184,160,184,158z M184,142
	c0-2.4,1.6-4,4-4l0,0c2,0,4,1.6,4,4l0,0c0,2-2,4-4,4l0,0C185.6,146,184,144,184,142z M184,126c0-2.4,1.6-4,4-4l0,0c2,0,4,1.6,4,4
	l0,0c0,2-2,4-4,4l0,0C185.6,130,184,128,184,126z M184,110c0-2.4,1.6-4,4-4l0,0c2,0,4,1.6,4,4l0,0c0,2-2,4-4,4l0,0
	C185.6,114,184,112,184,110z M184,94c0-2.4,1.6-4,4-4l0,0c2,0,4,1.6,4,4l0,0c0,2-2,4-4,4l0,0C185.6,98,184,96,184,94z"/>
<path d="M460.4,95.2c-26.4,0-47.6-21.2-47.6-47.6S434,0,460.4,0S508,21.2,508,47.6C508,73.6,486.8,95.2,460.4,95.2z M460.4,8
	c-22,0-39.6,17.6-39.6,39.6s17.6,39.6,39.6,39.6S500,69.6,500,47.6S482.4,8,460.4,8z"/>
<path d="M460,278c-2.4,0-4-1.6-4-4V94c0-2.4,1.6-4,4-4s4,1.6,4,4v180C464,276.4,462.4,278,460,278z"/>
<path d="M353.2,158.8c-1.2,0-2-0.4-2.8-1.2c-1.6-1.6-1.6-4,0-5.6l75.2-75.2c1.6-1.6,4-1.6,5.6,0s1.6,4,0,5.6L356,157.6
	C355.2,158.4,354.4,158.8,353.2,158.8z"/>
<path d="M79.2,158.8c-1.2,0-2-0.4-2.8-1.2c-1.6-1.6-1.6-4,0-5.6l75.2-75.2c1.6-1.6,4-1.6,5.6,0s1.6,4,0,5.6L82,157.6
	C81.6,158.4,80.4,158.8,79.2,158.8z"/>
<path d="M353.2,434.8c-1.2,0-2-0.4-2.8-1.2c-1.6-1.6-1.6-4,0-5.6l75.2-75.2c1.6-1.6,4-1.6,5.6,0s1.6,4,0,5.6L356,433.6
	C355.2,434.4,354.4,434.8,353.2,434.8z"/>
<path d="M76.4,433.6c-1.6-1.6-1.6-4,0-5.6l0,0c1.6-1.6,4-1.6,5.6,0l0,0c1.6,1.6,1.6,4,0,5.6l0,0c-0.8,0.8-2,1.2-2.8,1.2l0,0
	C78.4,434.8,77.2,434.4,76.4,433.6z M87.6,422.4c-1.6-1.6-1.6-4,0-5.6l0,0c1.6-1.6,4-1.6,5.6,0l0,0c1.6,1.6,1.6,4,0,5.6l0,0
	c-0.8,0.8-2,1.2-2.8,1.2l0,0C89.6,423.6,88.4,423.2,87.6,422.4z M98.8,411.2c-1.6-1.6-1.6-4,0-5.6l0,0c1.6-1.6,4-1.6,5.6,0l0,0
	c1.6,1.6,1.6,4,0,5.6l0,0c-0.8,0.8-2,1.2-2.8,1.2l0,0C100.8,412.4,99.6,412,98.8,411.2z M110.4,400c-1.6-1.6-1.6-4,0-5.6l0,0
	c1.6-1.6,4-1.6,5.6,0l0,0c1.6,1.6,1.6,4,0,5.6l0,0c-0.8,0.8-1.6,1.2-2.8,1.2l0,0C112,401.2,110.8,400.4,110.4,400z M121.6,388.4
	c-1.6-1.6-1.6-4,0-5.6l0,0c1.6-1.6,4-1.6,5.6,0l0,0c1.6,1.6,1.6,4,0,5.6l0,0c-0.8,0.8-2,1.2-2.8,1.2l0,0
	C123.2,389.6,122.4,389.2,121.6,388.4z M132.8,377.2c-1.6-1.6-1.6-4,0-5.6l0,0c1.6-1.6,4-1.6,5.6,0l0,0c1.6,1.6,1.6,4,0,5.6l0,0
	c-0.8,0.8-2,1.2-2.8,1.2l0,0C134.4,378.4,133.6,378,132.8,377.2z M144,366c-1.6-1.6-1.6-4,0-5.6l0,0c1.6-1.6,4-1.6,5.6,0l0,0
	c1.6,1.6,1.6,4,0,5.6l0,0c-0.8,0.8-2,1.2-2.8,1.2l0,0C145.6,367.2,144.8,366.8,144,366z"/>
</svg>
