<svg id="Layer_1" data-name="Layer 1" xmlns="http://www.w3.org/2000/svg" width="100" height="100" viewBox="0 0 100 100">
  <defs>
    <style>
      .cls-1 {
        fill: #ededf4;
      }

      .cls-2 {
        fill: #fedb69;
      }

      .cls-3 {
        fill: #0e100f;
      }

      .cls-4 {
        fill: #2c302e;
      }

      .cls-5 {
        fill: #fffa7b;
      }

      .cls-6 {
        fill: #040505;
      }

      .cls-7 {
        fill: #1b1e1d;
      }
    </style>
  </defs>
  <g id="Group_11404" data-name="Group 11404">
    <circle id="Ellipse_105" data-name="Ellipse 105" class="cls-1" cx="39.6" cy="54.3" r="38.6"/>
    <rect id="Rectangle_267" data-name="Rectangle 267" class="cls-2" x="27.1" y="29.5" width="64.3" height="53.93" rx="4.2"/>
    <g id="Group_11399" data-name="Group 11399">
      <g id="Group_11396" data-name="Group 11396">
        <path id="Path_902" data-name="Path 902" class="cls-3" d="M67.9,54.6h-.6c-.1,0-.2-.1-.2-.3s.2-.3.3-.2h.5c.2.1.3.2.3.4s-.2.2-.3.2Z"/>
      </g>
      <g id="Group_11397" data-name="Group 11397">
        <path id="Path_903" data-name="Path 903" class="cls-3" d="M65.2,54.2h0L64.1,54a.5.5,0,0,1-.2-.4c0-.1.2-.2.3-.2l1.1.2c.1,0,.2.2.2.3a.3.3,0,0,1-.3.3Zm-3.1-.7H62l-1.1-.2a.3.3,0,0,1,.2-.6h0l1,.3c.2,0,.3.1.2.3a.2.2,0,0,1-.2.2Zm-3.2-.7h-.1l-1-.2c-.2-.1-.3-.2-.2-.4s.2-.2.3-.2h0l1.1.3c.1,0,.2.2.2.3s-.2.3-.3.3Zm-3.1-1h-.1l-1-.3c-.2-.1-.3-.2-.2-.4a.2.2,0,0,1,.3-.1l1.1.3c.1,0,.2.2.2.3s-.2.2-.3.2Zm-3.1-1h-.1l-1-.4c-.1-.1-.2-.3-.1-.4s.2-.2.3-.2l1,.4a.4.4,0,0,1,.2.4l-.3.2Zm-3-1.3h-.1l-1-.5c-.1-.1-.2-.2-.1-.4s.3-.2.4-.1l1,.5c.1,0,.2.2.1.4ZM46.9,48h-.2l-.9-.5c-.1-.1-.2-.3-.1-.4a.2.2,0,0,1,.4-.1h0l.9.6c.2,0,.2.2.1.4Zm-2.7-1.9a.1.1,0,0,1-.1-.1l-.8-.7a.2.2,0,0,1-.1-.4c.2-.1.3-.2.5,0h0l.7.7a.2.2,0,0,1,.1.4Zm3.9-1.4c-.1,0-.3-.1-.3-.2a.3.3,0,0,1,.3-.3l1-.2a.3.3,0,0,1,.2.6H48.1Zm-2.1,0h-.2l-1-.2c-.1,0-.2-.2-.2-.3s.2-.3.4-.3l.9.2H46c.2.1.3.2.2.4a.2.2,0,0,1-.2.2Zm-3.2-.9h-.1l-.4-.2h-.1a.3.3,0,0,1-.4,0,.4.4,0,0,0-.1-.3c-.1,0-.1-.1-.1-.2l-.3-.5c-.1-.1,0-.3.1-.4s.3,0,.4.1l.3.6.9.4c.1.1.2.2.1.4Zm8.4,0a.3.3,0,0,1-.3-.3.2.2,0,0,1,.2-.2l.8-.6c.2-.1.3,0,.4.1a.3.3,0,0,1,0,.4h0l-1,.6ZM40,42.3h-.2l-.8-.6a.2.2,0,0,1-.1-.4c.1-.1.3-.2.4-.1l.9.7c.1.1.1.2,0,.4Zm13.6-.6h-.2c-.1-.1-.1-.2-.1-.4h.1a3.6,3.6,0,0,0,.4-.9c.1-.1.3-.2.4-.1s.2.2.2.4h0l-.5.9h-.3Zm-12.7-1c-.2,0-.3-.1-.3-.2a4.5,4.5,0,0,1-.1-1.1.3.3,0,0,1,.3-.3q.2,0,.3.3a3.4,3.4,0,0,0,.1,1,.3.3,0,0,1-.3.3Zm-3.4-.5h-.2l-.7-.8a.3.3,0,1,1,.4-.4h0l.7.7a.3.3,0,0,1,0,.4c0,.1-.1.1-.2.1Zm17.1-1.6h-.1c-.1,0-.2-.1-.2-.3V38a1.7,1.7,0,0,0-.1-.7.3.3,0,0,1,.3-.3c.1,0,.3.1.3.2h0v1.2a.2.2,0,0,1-.2.2Zm-19.1-.9h-.3l-.6-.9c-.1-.2,0-.3.1-.4s.3-.1.4.1l.6.9c.1.1,0,.3-.1.4Zm5.5-.2h-.1c-.1,0-.2-.2-.2-.3h0c.1-.4.1-.8.2-1.1s.2-.3.4-.2.2.2.2.3h0a4.3,4.3,0,0,0-.2,1.1l-.3.2Zm12.9-2-.3-.2-.3-.5-.2-.3a.3.3,0,1,1,.4-.4l.3.4.3.6a.2.2,0,0,1-.1.4Zm-20-.6-.3-.2a4.2,4.2,0,0,0-.4-1,.3.3,0,1,1,.6-.2,4.2,4.2,0,0,0,.4,1,.4.4,0,0,1-.2.4Zm8.1-.4a.1.1,0,0,1-.1-.1c-.1-.1-.2-.2-.1-.4h0l.7-.9a.3.3,0,1,1,.4.4h0l-.6.8-.3.2Zm9.7-1.3h-.2l-.9-.5c-.1,0-.2-.2-.1-.4s.2-.2.4-.1l.9.5a.2.2,0,0,1,.1.4.2.2,0,0,1-.2.2Zm-7.3-.8c-.1,0-.2-.1-.2-.3a.4.4,0,0,1,.1-.3l1.1-.3c.2-.1.3,0,.4.2a.3.3,0,0,1-.3.3h0l-.9.4Zm4.3-.4H47.6a.3.3,0,1,1,0-.6h1.1c.2.1.3.2.3.4l-.3.2ZM33,31.8a.3.3,0,0,1-.3-.3,3.7,3.7,0,0,1-.1-1.1l.2-.3a.3.3,0,0,1,.3.3c.1.4.1.7.2,1.1a.3.3,0,0,1-.3.3Zm-.1-3.2a.5.5,0,0,1-.3-.3h0c.1-.3.1-.7.2-1.1a.3.3,0,0,1,.6.2,3.6,3.6,0,0,0-.2,1,.3.3,0,0,1-.3.3Zm.9-3.1a.5.5,0,0,1-.3-.3h.1a3.6,3.6,0,0,1,.4-.9h.1c.1-.2.2-.2.4-.1s.2.2.1.4h0a.1.1,0,0,0-.1.1,3,3,0,0,0-.4.8l-.3.2Zm1.8-2.7a.3.3,0,0,1-.3-.3c0-.1,0-.2.1-.2l.7-.8c.2-.1.3-.1.4,0a.2.2,0,0,1,0,.4l-.7.8ZM38,20.6a.3.3,0,0,1-.3-.3c0-.1,0-.2.1-.2l.9-.7c.1-.1.3,0,.4.1a.2.2,0,0,1-.1.4h0l-.8.6Zm2.7-1.7-.3-.3c0-.1.1-.2.2-.3h.1l.9-.5a.3.3,0,1,1,.2.6l-.8.4h-.3Zm3-1.4a.3.3,0,0,1-.3-.3.2.2,0,0,1,.2-.2l1-.4a.2.2,0,0,1,.3.1c.1.2,0,.3-.1.4l-1,.4Zm3-1.1a.3.3,0,0,1-.3-.3c0-.1.1-.2.2-.3l1-.3c.2-.1.4,0,.4.2s0,.3-.2.3h0l-1,.4Zm3.1-1a.3.3,0,0,1-.3-.3l.2-.2,1.1-.3c.1-.1.3,0,.3.2s0,.3-.2.3h0l-1,.3Zm3.1-.8c-.1,0-.2-.1-.2-.3a.2.2,0,0,1,.2-.2l1-.3c.2,0,.3.1.4.3s-.1.3-.2.3l-1.1.2Zm3.2-.6a.3.3,0,0,1,0-.6l1-.2c.2,0,.3.1.4.3a.3.3,0,0,1-.3.3l-1,.2Zm3.2-.5a.3.3,0,0,1,0-.6h1.1l.3.2c0,.2-.1.3-.3.4H59.3Zm3.2-.3c-.1,0-.2-.2-.2-.3s.1-.3.2-.3h1.1a.3.3,0,0,1,.3.3.3.3,0,0,1-.3.3H62.5Zm7.6-.2H69a.5.5,0,0,1-.3-.3.3.3,0,0,1,.3-.3h1.1a.3.3,0,0,1,.3.3.3.3,0,0,1-.3.3Zm-4.3,0a.3.3,0,0,1,0-.6h1.1a.3.3,0,0,1,.3.3.5.5,0,0,1-.3.3Z"/>
      </g>
      <g id="Group_11398" data-name="Group 11398">
        <path id="Path_904" data-name="Path 904" class="cls-3" d="M72.8,13.2h-.6c-.1,0-.2-.1-.2-.3s.1-.3.3-.2h.5a.3.3,0,0,1,.3.3.5.5,0,0,1-.3.3Z"/>
      </g>
    </g>
    <path id="Path_905" data-name="Path 905" class="cls-4" d="M99,45.1l-.8,4.4h0L92.7,79.8A5.4,5.4,0,0,1,87.5,84H32a5.3,5.3,0,0,1-5.2-4.3L26.6,78,23.7,61.8l-1-6.2a5.2,5.2,0,0,1,4.2-6.1H57.1a5.4,5.4,0,0,0,4.3-2.3l4.2-6a5.1,5.1,0,0,1,4.3-2.3H93.8A5.2,5.2,0,0,1,99,44.2Z"/>
    <path id="Path_906" data-name="Path 906" class="cls-5" d="M98.4,44.6l-.8,4.3h.1L92.1,79.2A5.2,5.2,0,0,1,87,83.5H31.5a5.2,5.2,0,0,1-5.2-4.3L26,77.5,23.2,61.3l-1.1-6.2A5.2,5.2,0,0,1,26.4,49H56.6a5.3,5.3,0,0,0,4.3-2.2l4.1-6a5.1,5.1,0,0,1,4.3-2.3h24a5.2,5.2,0,0,1,5.2,5.2A3.4,3.4,0,0,1,98.4,44.6Z"/>
    <ellipse id="Ellipse_106" data-name="Ellipse 106" class="cls-6" cx="82" cy="9.9" rx="1.5" ry="2.9" transform="translate(0.4 22.5) rotate(-15.7)"/>
    <ellipse id="Ellipse_107" data-name="Ellipse 107" class="cls-6" cx="81.9" cy="13.1" rx="1.4" ry="3.3" transform="matrix(0.13, -0.99, 0.99, 0.13, 58.23, 92.57)"/>
    <ellipse id="Ellipse_108" data-name="Ellipse 108" class="cls-4" cx="83.8" cy="10.2" rx="2.8" ry="1.5" transform="translate(41.3 83.2) rotate(-66.7)"/>
    <path id="Path_908" data-name="Path 908" class="cls-4" d="M85.4,13.2a.6.6,0,0,1-.8,0,.5.5,0,0,1-.2-.6h.1a.5.5,0,0,1,.7-.1.6.6,0,0,1,.2.7Z"/>
    <g id="Group_11400" data-name="Group 11400">
      <path id="Path_909" data-name="Path 909" class="cls-7" d="M80.7,14.7h0c.9.1,2.5-1.1,2.7-1.2h.1c-.1,0-1.8,1.4-2.8,1.3Z"/>
    </g>
    <g id="Group_11401" data-name="Group 11401">
      <path id="Path_910" data-name="Path 910" class="cls-7" d="M78.8,14.1h.1a5.8,5.8,0,0,0,2.8-.8h.1s-2,1.1-2.9.8Z"/>
    </g>
    <g id="Group_11402" data-name="Group 11402">
      <path id="Path_911" data-name="Path 911" class="cls-7" d="M81.6,15h0c.8.1,2.5-1.1,2.6-1.2h.1A5.2,5.2,0,0,1,81.6,15Z"/>
    </g>
    <g id="Group_11403" data-name="Group 11403">
      <path id="Path_912" data-name="Path 912" class="cls-7" d="M79.6,14.5h.1c.8.2,2.7-.8,2.8-.9h.1s-2,1.1-2.9.9Z"/>
    </g>
  </g>
</svg>
