<svg id="Layer_1" data-name="Layer 1" xmlns="http://www.w3.org/2000/svg" width="86" height="100" viewBox="0 0 86 100">
  <defs>
    <style>
      .cls-1 {
        fill: #0e100f;
      }

      .cls-2 {
        fill: #fe9f73;
      }

      .cls-3 {
        fill: #f07162;
      }

      .cls-4 {
        fill: #fbfdfc;
      }

      .cls-5 {
        fill: #fff;
      }

      .cls-6 {
        fill: #fedb69;
      }

      .cls-7 {
        fill: #fffa7b;
      }

      .cls-8 {
        fill: #f08640;
      }

      .cls-9 {
        fill: #20111d;
      }

      .cls-10 {
        fill: #040505;
      }

      .cls-11 {
        fill: #b9edd6;
      }

      .cls-12 {
        fill: #323233;
      }

      .cls-13 {
        fill: #3f9896;
      }

      .cls-14 {
        fill: #9592ff;
      }

      .cls-15 {
        fill: #4b8c6b;
      }

      .cls-16 {
        fill: #ed7163;
      }
    </style>
  </defs>
  <g>
    <g id="Group_478" data-name="Group 478">
      <g id="Group_429" data-name="Group 429">
        <g id="Group_428" data-name="Group 428">
          <g id="Group_427" data-name="Group 427">
            <path id="Path_27" data-name="Path 27" class="cls-1" d="M53.8,10.7s3-3.9-1.1-8.7-6.3,1.1-8.4,1.2S38.9,1.8,36.8,5s-2.1,6.1-4.3,6.2-10,3.6-9.9,10.7a8.6,8.6,0,0,0,6.7,8.4s25.5,7.3,28.8,1,1.6-9.8-1.1-12.8S51.5,14.5,53.8,10.7Z"/>
          </g>
        </g>
      </g>
      <g id="Group_466" data-name="Group 466">
        <g id="Group_433" data-name="Group 433">
          <g id="Group_432" data-name="Group 432">
            <g id="Group_431" data-name="Group 431">
              <g id="Group_430" data-name="Group 430">
                <path id="Path_28" data-name="Path 28" class="cls-2" d="M50.6,12.2s0,9.6-1.9,11.5a3.3,3.3,0,0,1-2.8.7L45,30.3l-8.4-1.2,3-19.4Z"/>
              </g>
            </g>
          </g>
        </g>
        <g id="Group_437" data-name="Group 437">
          <g id="Group_436" data-name="Group 436">
            <g id="Group_435" data-name="Group 435">
              <g id="Group_434" data-name="Group 434">
                <path id="Path_29" data-name="Path 29" class="cls-3" d="M46.8,19.2h-.1c0-.1,0-.1.1-.1s.9-.6,1-.8a1.8,1.8,0,0,1-1-1.6,2.3,2.3,0,0,1,.6-1.8h.1c.1.1.1.1,0,.1a2.7,2.7,0,0,0-.6,1.7,2.6,2.6,0,0,0,1,1.6H48c-.1,0-.5.8-1.2.9Z"/>
              </g>
            </g>
          </g>
        </g>
        <g id="Group_441" data-name="Group 441">
          <g id="Group_440" data-name="Group 440">
            <g id="Group_439" data-name="Group 439">
              <g id="Group_438" data-name="Group 438">
                <path id="Path_30" data-name="Path 30" class="cls-3" d="M45.5,26.8l.4-2.4s-4-.8-6.3-2.8C39.6,21.6,42.5,25.4,45.5,26.8Z"/>
              </g>
            </g>
          </g>
        </g>
        <g id="Group_445" data-name="Group 445">
          <g id="Group_444" data-name="Group 444">
            <g id="Group_443" data-name="Group 443">
              <g id="Group_442" data-name="Group 442">
                <path id="Path_31" data-name="Path 31" class="cls-1" d="M42.7,14.4h-.1c.1-.1,2.3-1.8,3.9,0,.1,0,.1.1,0,.2h-.2c-1.4-1.5-3.4-.1-3.5,0Z"/>
              </g>
            </g>
          </g>
        </g>
        <g id="Group_449" data-name="Group 449">
          <g id="Group_448" data-name="Group 448">
            <g id="Group_447" data-name="Group 447">
              <g id="Group_446" data-name="Group 446">
                <path id="Path_32" data-name="Path 32" class="cls-1" d="M48.1,14.9a.2.2,0,0,1-.2-.2H48c.1,0,1.6-1,2.3-.1s.1.2,0,.2-.1.1-.2,0-1.9.2-1.9.2Z"/>
              </g>
            </g>
          </g>
        </g>
        <g id="Group_453" data-name="Group 453">
          <g id="Group_452" data-name="Group 452">
            <g id="Group_451" data-name="Group 451">
              <g id="Group_450" data-name="Group 450">
                <path id="Path_33" data-name="Path 33" class="cls-1" d="M49.6,16.4a.4.4,0,0,1-.8-.2.3.3,0,0,1,.5-.3h0a.3.3,0,0,1,.3.5Z"/>
              </g>
            </g>
          </g>
        </g>
        <g id="Group_457" data-name="Group 457">
          <g id="Group_456" data-name="Group 456">
            <g id="Group_455" data-name="Group 455">
              <g id="Group_454" data-name="Group 454">
                <path id="Path_34" data-name="Path 34" class="cls-1" d="M45.4,15.6c0,.3-.2.4-.5.4a.4.4,0,1,1,.2-.8h0c.2,0,.3.2.3.4Z"/>
              </g>
            </g>
          </g>
        </g>
        <g id="Group_461" data-name="Group 461">
          <g id="Group_460" data-name="Group 460">
            <g id="Group_459" data-name="Group 459">
              <g id="Group_458" data-name="Group 458">
                <circle id="Ellipse_30" data-name="Ellipse 30" class="cls-2" cx="37.8" cy="16.4" r="2.4"/>
              </g>
            </g>
          </g>
        </g>
        <g id="Group_465" data-name="Group 465">
          <g id="Group_464" data-name="Group 464">
            <g id="Group_463" data-name="Group 463">
              <g id="Group_462" data-name="Group 462">
                <path id="Path_35" data-name="Path 35" class="cls-3" d="M37.4,17.8a.9.9,0,0,1-.8-.8.9.9,0,0,1,.5-1.1,1.2,1.2,0,0,1,1.3.2,2.1,2.1,0,0,0-.4-.6,1.2,1.2,0,0,0-1-.2c-.1,0-.1,0-.1-.1h0a2.7,2.7,0,0,1,1.2.3,1.6,1.6,0,0,1,.5,1v.2l-.2-.2a1,1,0,0,0-1.2-.3.9.9,0,0,0-.5.8,1.1,1.1,0,0,0,.8.8h-.1Z"/>
              </g>
            </g>
          </g>
        </g>
      </g>
      <g id="Group_469" data-name="Group 469">
        <g id="Group_468" data-name="Group 468">
          <g id="Group_467" data-name="Group 467">
            <path id="Path_36" data-name="Path 36" class="cls-2" d="M50.6,12.2s-.1-3.8-5-5-6,2.5-6,2.5L45,11.6l5.3.5Z"/>
          </g>
        </g>
      </g>
      <g id="Group_472" data-name="Group 472">
        <g id="Group_471" data-name="Group 471">
          <g id="Group_470" data-name="Group 470">
            <path id="Path_37" data-name="Path 37" class="cls-1" d="M51.1,9.1s-3.5,2.5-7.3,1.2c0,0-2.1,4.6-4.9,4s-.3-7.2-.3-7.2l6-1.3,6.1.6Z"/>
          </g>
        </g>
      </g>
      <g id="Group_477" data-name="Group 477">
        <g id="Group_476" data-name="Group 476">
          <g id="Group_475" data-name="Group 475">
            <g id="Group_474" data-name="Group 474">
              <g id="Group_473" data-name="Group 473">
                <path id="Path_38" data-name="Path 38" class="cls-4" d="M47.4,20.3l-2.8-1s0,1.3,1,1.6A1.7,1.7,0,0,0,47.4,20.3Z"/>
              </g>
            </g>
          </g>
        </g>
      </g>
    </g>
    <g id="Group_480" data-name="Group 480">
      <g id="Group_479" data-name="Group 479">
        <path id="Path_39" data-name="Path 39" class="cls-5" d="M8.9,99.9H66.8c-.5-3.6-1.3-12.1-1.8-16.5h0v-.2c-.1-1.2-.2-2.1-.2-2.2H41.1l-10.8-.2H28.8L18.4,77.4l-6.6-1.8a6.8,6.8,0,0,0-.1,1.2c-.3,2.4-1.1,8.2-1.8,14.1v.2h0C9.5,94.2,9.2,97.3,8.9,99.9Z"/>
      </g>
    </g>
    <g id="Group_481" data-name="Group 481">
      <path id="Path_40" data-name="Path 40" class="cls-6" d="M48.1,88.1a13.3,13.3,0,1,0-7.3-17.2h0A13.1,13.1,0,0,0,48.1,88.1Z"/>
      <path id="Path_41" data-name="Path 41" class="cls-7" d="M48.7,86.5a11.5,11.5,0,1,0-6.3-15A11.6,11.6,0,0,0,48.7,86.5Z"/>
      <path id="Path_42" data-name="Path 42" class="cls-6" d="M52.1,79.9a6.3,6.3,0,0,1-.6-3.1V75.6c0-1.6-.3-2.6-.9-2.8a1.1,1.1,0,0,0-1.1,0,2,2,0,0,0-.9,1.1,2.2,2.2,0,0,0-.1,1.4,2.5,2.5,0,0,0,.8,1.4l-1.6,1.8a4.3,4.3,0,0,1-1.4-2.3,4.1,4.1,0,0,1,.1-1.9l-1.7-.6.9-2.1,1.6.7a4.1,4.1,0,0,1,1.6-1.6,3.3,3.3,0,0,1,2.9-.1,4.5,4.5,0,0,1,1.4,1,3.3,3.3,0,0,1,.7,1.6,13.8,13.8,0,0,1,.1,2.9v.5a5.5,5.5,0,0,0,.2,1.8,1.1,1.1,0,0,0,.8.7,1.5,1.5,0,0,0,1.3,0,2.8,2.8,0,0,0,1.2-2.9,4.8,4.8,0,0,0-1-1.7l1.8-1.7a5.3,5.3,0,0,1,1.5,2.6,4,4,0,0,1-.1,1.9l1.8.7-.8,2.1-1.7-.7A4.4,4.4,0,0,1,57,81.3a3.4,3.4,0,0,1-3.1,0,3.2,3.2,0,0,1-1.8-1.4Z"/>
      <path id="Path_43" data-name="Path 43" class="cls-8" d="M51.7,78.5a.7.7,0,0,1-.1-.5,11.4,11.4,0,0,0,2.3-1.5h0a5.7,5.7,0,0,0,.1,1.3.6.6,0,0,0,.1.4,1.1,1.1,0,0,0,.8.8,1.5,1.5,0,0,0,1.3,0,2.7,2.7,0,0,0,1.2-2.7v-.2a4.8,4.8,0,0,0-1-1.7l1.8-1.7a5.3,5.3,0,0,1,1.5,2.6h0a3.7,3.7,0,0,1-.1,1.8l1.8.7-.8,2.1-1.7-.7A4.4,4.4,0,0,1,57,81.3a3.4,3.4,0,0,1-3.1,0,3.2,3.2,0,0,1-1.8-1.4,3.7,3.7,0,0,1-.4-1.4Z"/>
      <path id="Path_44" data-name="Path 44" class="cls-9" d="M66.2,73.7a10.9,10.9,0,0,0-.8-3.1,13.5,13.5,0,0,0-17.5-7.1,13.2,13.2,0,0,0-7.2,7.3h.1a13.2,13.2,0,1,1,24.5,9.9h.1A12.7,12.7,0,0,0,66.2,73.7Z"/>
      <path id="Path_45" data-name="Path 45" class="cls-9" d="M63.8,80.1h-.2a11.4,11.4,0,0,1-21.1-8.5h-.2a11.6,11.6,0,0,0,21.5,8.7Z"/>
      <path id="Path_46" data-name="Path 46" class="cls-9" d="M49.8,66h0a6.1,6.1,0,0,0-4,1.8h.1A5.9,5.9,0,0,1,49.8,66Z"/>
      <path id="Path_47" data-name="Path 47" class="cls-9" d="M50.2,67.2h0a6.1,6.1,0,0,0-4,1.8c-.1,0-.1.1,0,.1h.1a5.9,5.9,0,0,1,3.9-1.8h0Z"/>
      <path id="Path_48" data-name="Path 48" class="cls-9" d="M48.9,70.7h0s-.1-.1-.1,0a3.3,3.3,0,0,0-1.6,1.5l-1.6-.7h-.1l1.7.7h.1a4.3,4.3,0,0,1,1.5-1.5Z"/>
      <path id="Path_49" data-name="Path 49" class="cls-9" d="M50.7,72.7h-.1a1.3,1.3,0,0,0-1.2,0,2.1,2.1,0,0,0-.8,1.1,2.6,2.6,0,0,0-.2,1.5,3.2,3.2,0,0,0,.8,1.4l-1.5,1.7a4.2,4.2,0,0,1-1.3-2.2,6.1,6.1,0,0,1,0-1.9h-.1a4.1,4.1,0,0,0-.1,1.9,4.5,4.5,0,0,0,1.4,2.4h.1l1.7-1.9h0a2.9,2.9,0,0,1-.8-1.4,2.2,2.2,0,0,1,.1-1.4,2,2,0,0,1,.8-1,1.4,1.4,0,0,1,1.1-.1h.1Z"/>
      <path id="Path_50" data-name="Path 50" class="cls-9" d="M60.6,80.1h0l-1.8-.7h0A3.9,3.9,0,0,1,57,81.2a3.7,3.7,0,0,1-3.1.1h-.1a3.8,3.8,0,0,0,3.3,0,5.5,5.5,0,0,0,1.8-1.9l1.6.6c.1.1.1,0,.1,0Z"/>
      <path id="Path_51" data-name="Path 51" class="cls-9" d="M59.7,75.5h0a4.9,4.9,0,0,0-1.5-2.7h0l-1.9,1.8h0a4.2,4.2,0,0,1,1,1.7A2.7,2.7,0,0,1,56.2,79a1.5,1.5,0,0,1-1.3.1,1.4,1.4,0,0,1-.7-.8h-.1c-.1,0-.1,0-.1.1h0a1.7,1.7,0,0,0,2.3.7,3,3,0,0,0,1.2-3,5.4,5.4,0,0,0-1-1.6l1.7-1.6a5.1,5.1,0,0,1,1.4,2.6,5.4,5.4,0,0,1,0,1.8h0c.1,0,.1,0,.1-.1h0A5.4,5.4,0,0,0,59.7,75.5Z"/>
    </g>
    <g id="Group_482" data-name="Group 482">
      <path id="Path_52" data-name="Path 52" class="cls-2" d="M45.3,27.5S59,30.8,64,34.7C73.2,42,92.3,70.2,82.9,78.9s-23.2,6.2-43,0l5.8-7.8,24.4-1L42.2,26.8Z"/>
    </g>
    <g id="Group_483" data-name="Group 483">
      <path id="Path_53" data-name="Path 53" class="cls-2" d="M39,26.8s-13.6-.9-19.1,2.3S-8.7,65.4,4.7,89c4.6,7.9,41.6,5.4,51.8-6.4L44.9,73.1,25,74.6Z"/>
    </g>
    <g id="Group_484" data-name="Group 484">
      <path id="Path_54" data-name="Path 54" class="cls-2" d="M50.6,29.3l-5.5-1.6-6.2-.2S14.3,52.9,14.2,53.4,6.3,75.1,15.5,74.9,52.9,53.1,54.2,53.8c5.1,9.9,15,18.4,15,18.4l6.5-10.4L64.6,47.3Z"/>
    </g>
    <g id="Group_485" data-name="Group 485">
      <path id="Path_55" data-name="Path 55" class="cls-2" d="M20.2,50.5s-.9,9-.2,14.1a22.9,22.9,0,0,0,3.6,10c4.2,6-11.7,3.5-12,3.3s2.1-27.4,2.3-28S20.2,50.5,20.2,50.5Z"/>
      <path id="Path_56" data-name="Path 56" class="cls-5" d="M24.5,27.5c-.8.1-8-2.4-20.2,24.9a15,15,0,0,0,5.1,3.5,18,18,0,0,0,11.5,1Z"/>
      <path id="Path_57" data-name="Path 57" class="cls-5" d="M55.4,30.5c.8,0,7.7-3.3,23.1,22.3a18.5,18.5,0,0,1-4.7,4.1,18.3,18.3,0,0,1-11.3,2.3C60.1,49.6,57.8,40.1,55.4,30.5Z"/>
    </g>
    <g id="Group_486" data-name="Group 486">
      <path id="Path_58" data-name="Path 58" d="M68.9,68.7a.1.1,0,0,0,.1-.1l2-1.8c.1,0,.1-.1.1-.2h-.3a11.2,11.2,0,0,0-2,1.8.2.2,0,0,0,0,.3Z"/>
    </g>
    <path id="Path_59" data-name="Path 59" class="cls-5" d="M38.6,47.9c10.2-9.6,11.5-19,11.5-19,2-.1,6.4,1.9,6.4,1.9C58,44.1,64.3,55.2,63.9,76c-11.5,3.9-43.4-.8-43.4-.8C8.9,52.8,38.6,47.9,38.6,47.9Z"/>
    <g id="Group_487" data-name="Group 487">
      <path id="Path_60" data-name="Path 60" class="cls-5" d="M30.6,26.7c-5.5,0-5.9.9-5.9.9-6.8,26.2-5.2,37.6-5.2,37.6l19.3-3.9L56,65s4.2-.3-7.2-8.2S31,28.2,31,28.2Z"/>
    </g>
    <g id="Group_488" data-name="Group 488">
      <path id="Path_61" data-name="Path 61" d="M23.6,74.8h.1v-.2c-2.8-4.1-4.1-10.4-3.8-18.8a86.8,86.8,0,0,1,1.5-12.6h0l3.5-15.5c0-.1-.1-.1-.2-.1a.1.1,0,0,0-.1.1L21.1,43h0a89.8,89.8,0,0,0-1.5,12.7c-.3,8.4,1,14.8,3.9,18.9Z"/>
    </g>
    <g id="Group_489" data-name="Group 489">
      <path id="Path_62" data-name="Path 62" d="M39.2,46.1c.1,0,.1-.1.1-.2h0c-2.5-3.7-7.2-14.9-7.2-15h-.2c-.1,0-.1.1-.1.2h0c.1.1,4.7,11.3,7.2,15Z"/>
    </g>
    <g id="Group_502" data-name="Group 502">
      <g id="Group_490" data-name="Group 490">
        <rect id="Rectangle_96" data-name="Rectangle 96" class="cls-10" x="25.9" y="37.6" width="15.5" height="32.65" transform="translate(-29.9 53.6) rotate(-57.7)"/>
      </g>
      <g id="Group_491" data-name="Group 491">
        <circle id="Ellipse_31" data-name="Ellipse 31" class="cls-11" cx="34.2" cy="54.2" r="5.7" transform="translate(-11 8.8) rotate(-12.6)"/>
      </g>
      <g id="Group_492" data-name="Group 492">
        <rect id="Rectangle_97" data-name="Rectangle 97" class="cls-1" x="26.3" y="39.6" width="15.5" height="32.64" transform="translate(-31.4 54.8) rotate(-57.7)"/>
      </g>
      <g id="Group_493" data-name="Group 493">
        <path id="Path_63" data-name="Path 63" class="cls-12" d="M38.1,58.7a5.8,5.8,0,0,1-7.9,1.6,5.7,5.7,0,0,1-1.5-7.9,5.5,5.5,0,0,1,7.7-1.6,5.7,5.7,0,0,1,1.8,7.8A.1.1,0,0,0,38.1,58.7Z"/>
      </g>
      <g id="Group_496" data-name="Group 496">
        <g id="Group_494" data-name="Group 494">
          <path id="Path_64" data-name="Path 64" class="cls-11" d="M39.4,59.4a7.3,7.3,0,0,1-6.5,3.3l9.9,6.2,6.7-10.6-9.9-6.2A7.1,7.1,0,0,1,39.4,59.4Z"/>
        </g>
        <g id="Group_495" data-name="Group 495">
          <path id="Path_65" data-name="Path 65" class="cls-12" d="M27.3,51.7a7.3,7.3,0,0,1,6.5-3.3L25.2,43,18.5,53.6,27.1,59A7.6,7.6,0,0,1,27.3,51.7Z"/>
        </g>
      </g>
      <g id="Group_497" data-name="Group 497">
        <path id="Path_66" data-name="Path 66" class="cls-1" d="M51.6,56.1l.4,2-2.6-1.6Z"/>
      </g>
      <g id="Group_498" data-name="Group 498">
        <path id="Path_67" data-name="Path 67" class="cls-1" d="M16.1,53.8l-.4-2.1,2.1-.6Z"/>
      </g>
      <g id="Group_499" data-name="Group 499">
        <path id="Path_68" data-name="Path 68" class="cls-10" d="M24,38.6l.4,2.1L16.1,53.8l-.4-2.1Z"/>
      </g>
      <g id="Group_500" data-name="Group 500">
        <rect id="Rectangle_98" data-name="Rectangle 98" class="cls-13" x="26" y="54.7" width="15.5" height="2.03" transform="translate(-31.4 54.5) rotate(-57.7)"/>
      </g>
      <g id="Group_501" data-name="Group 501">
        <path id="Path_69" data-name="Path 69" class="cls-14" d="M38.7,49.7l.3-1.6-1.6-1L37,48.7Z"/>
      </g>
    </g>
    <g id="Group_505" data-name="Group 505">
      <g id="Group_503" data-name="Group 503">
        <path id="Path_70" data-name="Path 70" d="M48.7,66a.2.2,0,0,1,.2.2H46.5a.1.1,0,0,1-.1-.1h2.3Z"/>
      </g>
      <g id="Group_504" data-name="Group 504">
        <path id="Path_71" data-name="Path 71" d="M48.5,65.4H46.3l-.2-.2h2.4Z"/>
      </g>
    </g>
    <g id="Group_518" data-name="Group 518">
      <g id="Group_506" data-name="Group 506">
        <rect id="Rectangle_99" data-name="Rectangle 99" class="cls-10" x="36.9" y="38.2" width="32.7" height="15.48" transform="translate(-17.1 47.1) rotate(-41.8)"/>
      </g>
      <g id="Group_507" data-name="Group 507">
        <circle id="Ellipse_32" data-name="Ellipse 32" class="cls-11" cx="53.7" cy="45.6" r="5.7" transform="translate(5.1 96.6) rotate(-86.7)"/>
      </g>
      <g id="Group_508" data-name="Group 508">
        <rect id="Rectangle_100" data-name="Rectangle 100" class="cls-1" x="39" y="38.5" width="32.7" height="15.48" transform="translate(-16.7 48.6) rotate(-41.8)"/>
      </g>
      <g id="Group_509" data-name="Group 509">
        <path id="Path_72" data-name="Path 72" class="cls-12" d="M59,43a5.7,5.7,0,1,1-8.6,7.4,5.7,5.7,0,0,1,.5-7.9A5.7,5.7,0,0,1,59,43Z"/>
      </g>
      <g id="Group_512" data-name="Group 512">
        <g id="Group_510" data-name="Group 510">
          <path id="Path_73" data-name="Path 73" class="cls-12" d="M60,42a6.8,6.8,0,0,1,1.4,7.1l8.8-7.8L61.8,32l-8.7,7.8A6.9,6.9,0,0,1,60,42Z"/>
        </g>
        <g id="Group_511" data-name="Group 511">
          <path id="Path_74" data-name="Path 74" class="cls-12" d="M49.4,51.5A7,7,0,0,1,48,44.3l-7.6,6.8,8.3,9.4,7.6-6.8A7.2,7.2,0,0,1,49.4,51.5Z"/>
        </g>
      </g>
      <g id="Group_513" data-name="Group 513">
        <path id="Path_75" data-name="Path 75" class="cls-10" d="M60.2,29.3l2.1.3-2.3,2Z"/>
      </g>
      <g id="Group_514" data-name="Group 514">
        <path id="Path_76" data-name="Path 76" class="cls-1" d="M48.3,62.9l-2.1-.3V60.5Z"/>
      </g>
      <g id="Group_515" data-name="Group 515">
        <path id="Path_77" data-name="Path 77" class="cls-15" d="M35.9,51.1l2,.2L48.3,62.9l-2.1-.3Z"/>
      </g>
      <g id="Group_516" data-name="Group 516">
        <rect id="Rectangle_101" data-name="Rectangle 101" class="cls-14" x="54" y="38.7" width="2" height="15.48" transform="translate(-17 48.4) rotate(-41.8)"/>
      </g>
      <g id="Group_517" data-name="Group 517">
        <path id="Path_78" data-name="Path 78" class="cls-14" d="M50.6,40l-1.5-.7-1.4,1.3,1.4.8Z"/>
      </g>
    </g>
    <g id="Group_531" data-name="Group 531">
      <g id="Group_519" data-name="Group 519">
        <rect id="Rectangle_102" data-name="Rectangle 102" class="cls-10" x="48.8" y="50.6" width="32.7" height="15.48" transform="translate(-14.5 22.1) rotate(-17.4)"/>
      </g>
      <g id="Group_520" data-name="Group 520">
        <circle id="Ellipse_33" data-name="Ellipse 33" class="cls-11" cx="65.7" cy="58.1" r="5.7" transform="translate(-16.3 89.3) rotate(-62.3)"/>
      </g>
      <g id="Group_521" data-name="Group 521">
        <rect id="Rectangle_103" data-name="Rectangle 103" class="cls-1" x="50.6" y="51.6" width="32.7" height="15.48" transform="translate(-14.7 22.7) rotate(-17.4)"/>
      </g>
      <g id="Group_522" data-name="Group 522">
        <path id="Path_79" data-name="Path 79" class="cls-11" d="M71.6,58a5.7,5.7,0,1,1-10.9,3.2,5.7,5.7,0,0,1,10.9-3.3Z"/>
      </g>
      <g id="Group_525" data-name="Group 525">
        <g id="Group_523" data-name="Group 523">
          <path id="Path_80" data-name="Path 80" class="cls-12" d="M73,57.5a7.4,7.4,0,0,1-1.7,7.1l11.2-3.5-3.8-12L67.6,52.6A7.2,7.2,0,0,1,73,57.5Z"/>
        </g>
        <g id="Group_524" data-name="Group 524">
          <path id="Path_81" data-name="Path 81" class="cls-1" d="M59.3,61.7a7.2,7.2,0,0,1,1.7-7l-9.7,3L55,69.6l9.8-3A7.2,7.2,0,0,1,59.3,61.7Z"/>
        </g>
      </g>
      <g id="Group_526" data-name="Group 526">
        <path id="Path_82" data-name="Path 82" class="cls-10" d="M78.4,46l1.7,1.1-2.8.9Z"/>
      </g>
      <g id="Group_527" data-name="Group 527">
        <path id="Path_83" data-name="Path 83" class="cls-1" d="M53.6,71.6l-1.8-1,.9-2Z"/>
      </g>
      <g id="Group_528" data-name="Group 528">
        <path id="Path_84" data-name="Path 84" class="cls-15" d="M47.2,55.8,49,56.9l4.6,14.7-1.8-1Z"/>
      </g>
      <g id="Group_529" data-name="Group 529">
        <rect id="Rectangle_104" data-name="Rectangle 104" class="cls-13" x="65.5" y="51.8" width="2" height="15.48" transform="matrix(0.95, -0.3, 0.3, 0.95, -14.74, 22.6)"/>
      </g>
      <g id="Group_530" data-name="Group 530">
        <path id="Path_85" data-name="Path 85" class="cls-13" d="M65.2,51.8l-1.1-1.3-1.8.6.9,1.3Z"/>
      </g>
    </g>
    <g id="Group_532" data-name="Group 532">
      <path id="Path_86" data-name="Path 86" class="cls-6" d="M31.5,58.1A13.3,13.3,0,1,0,46.1,46.4h0A13.2,13.2,0,0,0,31.5,58.1Z"/>
      <path id="Path_87" data-name="Path 87" class="cls-7" d="M33.3,58.3A11.5,11.5,0,1,0,45.9,48.2,11.5,11.5,0,0,0,33.3,58.3Z"/>
      <path id="Path_88" data-name="Path 88" class="cls-6" d="M40.6,59.7a6.7,6.7,0,0,1,2.7-1.4l1.2-.3c1.6-.4,2.4-1,2.5-1.6a1.5,1.5,0,0,0-.4-1.1,1.7,1.7,0,0,0-1.2-.5,2.6,2.6,0,0,0-1.5.2,4.3,4.3,0,0,0-1.1,1.2l-2.1-1.1a3.7,3.7,0,0,1,1.8-1.9,4.1,4.1,0,0,1,1.8-.5l.2-1.7,2.2.2-.2,1.7a4.1,4.1,0,0,1,2,1.2,3.3,3.3,0,0,1,.9,2.7,4.9,4.9,0,0,1-.6,1.7,6.9,6.9,0,0,1-1.3,1.1,14,14,0,0,1-2.9.9h-.4a3.8,3.8,0,0,0-1.6.6,1.2,1.2,0,0,0-.6,1,1.3,1.3,0,0,0,.5,1.3,2.9,2.9,0,0,0,3.1.3,3.5,3.5,0,0,0,1.3-1.4L49,63.7a4.7,4.7,0,0,1-2.1,2.1,6.1,6.1,0,0,1-1.8.5l-.2,1.9-2.2-.3V66.1a4.3,4.3,0,0,1-2.3-1.2,3.9,3.9,0,0,1-.9-3.1,3.5,3.5,0,0,1,1-2.1Z"/>
      <path id="Path_89" data-name="Path 89" class="cls-9" d="M50.4,71.6A14,14,0,0,0,53,70a13.4,13.4,0,0,0,2.1-18.8,13.5,13.5,0,0,0-9-4.9h0a13.2,13.2,0,0,1-2.9,26.3h0A12.7,12.7,0,0,0,50.4,71.6Z"/>
      <path id="Path_90" data-name="Path 90" class="cls-9" d="M43.5,71h-.1a11.4,11.4,0,0,1,2.5-22.7H46a11.6,11.6,0,1,0-2.6,23Z"/>
      <path id="Path_91" data-name="Path 91" class="cls-9" d="M53.3,53.8h.1a6.3,6.3,0,0,0-2.9-3.3c0-.1,0-.1-.1,0a.1.1,0,0,0,.1.1,5.9,5.9,0,0,1,2.7,3.2Z"/>
      <path id="Path_92" data-name="Path 92" class="cls-9" d="M52.2,54.5h0a5.9,5.9,0,0,0-2.8-3.3h-.1a6.1,6.1,0,0,1,2.8,3.3Z"/>
      <path id="Path_93" data-name="Path 93" class="cls-9" d="M48.5,54.1h0a4.5,4.5,0,0,0-1.9-1.1l.2-1.7a.1.1,0,0,0-.1-.1h-.1L46.4,53h.1a4.5,4.5,0,0,1,1.9,1.1C48.4,54.2,48.5,54.2,48.5,54.1Z"/>
      <path id="Path_94" data-name="Path 94" class="cls-9" d="M47,56.4h.1a1.7,1.7,0,0,0-.4-1.2,2.1,2.1,0,0,0-1.3-.5,2.1,2.1,0,0,0-1.5.3,2.3,2.3,0,0,0-1.1,1.1l-2-1a3.7,3.7,0,0,1,1.8-1.9,4.7,4.7,0,0,1,1.7-.4h.1a.1.1,0,0,0-.1-.1h0a4.3,4.3,0,0,0-3.7,2.5h0l2.2,1.1h.1A2.9,2.9,0,0,1,44,55.1a3.2,3.2,0,0,1,1.4-.3,2.6,2.6,0,0,1,1.2.5,1.4,1.4,0,0,1,.3,1.1Z"/>
      <path id="Path_95" data-name="Path 95" class="cls-9" d="M42.7,68h0l.2-1.8h0a4.8,4.8,0,0,1-2.3-1.3,3.2,3.2,0,0,1-.9-2.9c0-.1,0-.1-.1-.1h-.1a3.9,3.9,0,0,0,1,3.1,4.1,4.1,0,0,0,2.3,1.3l-.2,1.7h.1Z"/>
      <path id="Path_96" data-name="Path 96" class="cls-9" d="M46.9,65.9h0a5.2,5.2,0,0,0,2.2-2.2h.1l-2.3-1.3h-.1a4.3,4.3,0,0,1-1.3,1.4,3,3,0,0,1-3-.3,1.6,1.6,0,0,1-.4-1.3,1.2,1.2,0,0,1,.5-.9h0s-.1-.1-.1,0h0a1.7,1.7,0,0,0-.6,1,1.9,1.9,0,0,0,.5,1.4,3.1,3.1,0,0,0,3.2.3,4.4,4.4,0,0,0,1.3-1.4l2,1.2a4.1,4.1,0,0,1-2.1,2,3.4,3.4,0,0,1-1.7.5H45a.1.1,0,0,0,.1.1A6.1,6.1,0,0,0,46.9,65.9Z"/>
    </g>
    <g id="Group_533" data-name="Group 533">
      <path id="Path_97" data-name="Path 97" class="cls-6" d="M21.7,54.9a13.3,13.3,0,1,0,18.6,2.4A13.2,13.2,0,0,0,21.7,54.9Z"/>
      <path id="Path_98" data-name="Path 98" class="cls-7" d="M22.8,56.3a11.5,11.5,0,0,0,14,18.2,11.5,11.5,0,0,0-14-18.2Z"/>
      <path id="Path_99" data-name="Path 99" class="cls-6" d="M26.8,62.5a6.2,6.2,0,0,1,2.9,1.1l1.1.6c1.4.8,2.4,1,2.9.6a1.2,1.2,0,0,0,.5-1,1.8,1.8,0,0,0-.5-1.2,3.1,3.1,0,0,0-1.1-.9,4.9,4.9,0,0,0-1.7,0l-.7-2.3a4.2,4.2,0,0,1,2.7,0,3.9,3.9,0,0,1,1.6,1l1.4-1.1L37.2,61l-1.4,1.1a4.3,4.3,0,0,1,.6,2.2A3.2,3.2,0,0,1,35,66.8a4,4,0,0,1-1.6.8,4.4,4.4,0,0,1-1.6-.2A22.9,22.9,0,0,1,29.1,66l-.4-.3L27.1,65a2,2,0,0,0-1.1.3,1.7,1.7,0,0,0-.6,1.2,2.9,2.9,0,0,0,2,2.5h1.9l.6,2.4a5.5,5.5,0,0,1-3.1-.1,4.7,4.7,0,0,1-1.6-1l-1.5,1.2-1.3-1.8,1.4-1.1a4.3,4.3,0,0,1-.7-2.5,3.9,3.9,0,0,1,1.5-2.8,3.7,3.7,0,0,1,2.2-.8Z"/>
      <path id="Path_100" data-name="Path 100" class="cls-9" d="M25.1,77.9a16.3,16.3,0,0,0,3,.7,13.4,13.4,0,0,0,15-11.5,13.9,13.9,0,0,0-2.7-9.9h-.2A13.2,13.2,0,1,1,19.4,73.5h-.1c-.1,0-.1,0,0,.1h0A13.8,13.8,0,0,0,25.1,77.9Z"/>
      <path id="Path_101" data-name="Path 101" class="cls-9" d="M20.7,72.5h.1a11.4,11.4,0,1,1,18-14h.1c.1,0,.1-.1,0-.1h0A11.5,11.5,0,1,0,20.7,72.5Z"/>
      <path id="Path_102" data-name="Path 102" class="cls-9" d="M40,67.6h.1a6.2,6.2,0,0,0,.4-4.3.1.1,0,0,0-.1-.1h0a6.9,6.9,0,0,1-.5,4.3Z"/>
      <path id="Path_103" data-name="Path 103" class="cls-9" d="M38.7,67.3h.1a6.2,6.2,0,0,0,.4-4.3.1.1,0,0,0-.1-.1H39a6.5,6.5,0,0,1-.4,4.3Z"/>
      <path id="Path_104" data-name="Path 104" class="cls-9" d="M36.3,64.3h.1a3.4,3.4,0,0,0-.5-2.2l1.4-1h0s-.1-.1-.1,0l-1.5,1.1h.1a5.4,5.4,0,0,1,.5,2.2Z"/>
      <path id="Path_105" data-name="Path 105" class="cls-9" d="M33.7,64.9h0a1.4,1.4,0,0,0,.6-1.1,2.1,2.1,0,0,0-.5-1.3,2.7,2.7,0,0,0-1.2-.9,4.3,4.3,0,0,0-1.6,0l-.7-2.1a3.9,3.9,0,0,1,2.6,0,3.8,3.8,0,0,1,1.5.9h.1c.1,0,.1-.1,0-.1h0a4.4,4.4,0,0,0-1.6-1,4.2,4.2,0,0,0-2.7,0h-.1l.8,2.4h0a2.2,2.2,0,0,1,1.6,0,2,2,0,0,1,1.2.8,2.6,2.6,0,0,1,.5,1.2,1.9,1.9,0,0,1-.5,1c-.1,0-.1,0-.1.1Z"/>
      <path id="Path_106" data-name="Path 106" class="cls-9" d="M22.4,69.8h0l1.5-1.1h0a3.8,3.8,0,0,1-.7-2.5,3.6,3.6,0,0,1,1.5-2.7h-.1A3.7,3.7,0,0,0,23,66.1a4.3,4.3,0,0,0,.7,2.5l-1.4,1.1h.1Z"/>
      <path id="Path_107" data-name="Path 107" class="cls-9" d="M26.8,71.4h0a5.5,5.5,0,0,0,3.1,0H30l-.6-2.5h-2a2.7,2.7,0,0,1-1.9-2.4,1.3,1.3,0,0,1,.6-1.1,1,1,0,0,1,1-.3h0a1.5,1.5,0,0,0-1.1.4,1.4,1.4,0,0,0-.7,1.2,2.8,2.8,0,0,0,2,2.5,3.4,3.4,0,0,0,2,0l.5,2.3a4.1,4.1,0,0,1-2.9-.1,4.2,4.2,0,0,1-1.6-.9h-.1c-.1,0-.1.1,0,.1h0A6.2,6.2,0,0,0,26.8,71.4Z"/>
    </g>
    <g id="Group_534" data-name="Group 534">
      <path id="Path_108" data-name="Path 108" class="cls-6" d="M53.4,65.3a13.3,13.3,0,1,0,2.3-18.6,13.2,13.2,0,0,0-2.3,18.6Z"/>
      <path id="Path_109" data-name="Path 109" class="cls-7" d="M54.8,64.2a11.5,11.5,0,1,0,2-16.1,11.4,11.4,0,0,0-2,16.1Z"/>
      <path id="Path_110" data-name="Path 110" class="cls-6" d="M61,60.1a7.6,7.6,0,0,1,1-2.9,5.4,5.4,0,0,0,.6-1.1c.9-1.4,1.1-2.4.7-2.9a1.4,1.4,0,0,0-1-.5,2.1,2.1,0,0,0-1.3.5,2.7,2.7,0,0,0-.9,1.2,2.9,2.9,0,0,0,.1,1.6l-2.3.8a4.5,4.5,0,0,1-.1-2.8,4,4,0,0,1,1-1.5l-1.1-1.4,1.8-1.4,1,1.4a3.4,3.4,0,0,1,2.2-.5,3.3,3.3,0,0,1,2.6,1.3,3.9,3.9,0,0,1,.7,1.6,3,3,0,0,1-.2,1.6,8.7,8.7,0,0,1-1.4,2.7l-.2.4a4.6,4.6,0,0,0-.7,1.6,1.1,1.1,0,0,0,.3,1.1,1.4,1.4,0,0,0,1.2.6,3,3,0,0,0,2.5-2,4.1,4.1,0,0,0-.1-1.9l2.4-.6a5.1,5.1,0,0,1,0,3,5.9,5.9,0,0,1-1,1.7L70,63.1l-1.7,1.4-1.2-1.4a4.3,4.3,0,0,1-2.5.7,3.9,3.9,0,0,1-2.8-1.5,3.5,3.5,0,0,1-.8-2.2Z"/>
      <path id="Path_111" data-name="Path 111" class="cls-9" d="M76.4,61.8a15.5,15.5,0,0,0,.7-3.1A13.2,13.2,0,0,0,65.5,43.9a13,13,0,0,0-9.9,2.7h.1A13.2,13.2,0,0,1,72,67.5s-.1.1,0,.1h.1A13.8,13.8,0,0,0,76.4,61.8Z"/>
      <path id="Path_112" data-name="Path 112" class="cls-9" d="M71,66.2h-.1a11.4,11.4,0,0,1-14.1-18h-.1A11.6,11.6,0,0,0,71,66.2Z"/>
      <path id="Path_113" data-name="Path 113" class="cls-9" d="M66,46.9h-.1a6.2,6.2,0,0,0-4.3-.4.1.1,0,0,0-.1.1h.1a6.3,6.3,0,0,1,4.3.4.1.1,0,0,0,.1-.1Z"/>
      <path id="Path_114" data-name="Path 114" class="cls-9" d="M65.7,48.2h-.1a5.4,5.4,0,0,0-4.3-.5h-.1a.1.1,0,0,0,.1.1,6.5,6.5,0,0,1,4.3.4h.1Z"/>
      <path id="Path_115" data-name="Path 115" class="cls-9" d="M62.8,50.6h0a.1.1,0,0,0-.1-.1,3.8,3.8,0,0,0-2.1.5l-1.1-1.3c0-.1-.1-.1-.1,0h0l1.1,1.4h.1a3.9,3.9,0,0,1,2.1-.6Z"/>
      <path id="Path_116" data-name="Path 116" class="cls-9" d="M63.3,53.2h0a1.1,1.1,0,0,0-1-.6,1.9,1.9,0,0,0-1.3.5,2,2,0,0,0-.9,1.3,2.2,2.2,0,0,0,0,1.6l-2.2.7a3.9,3.9,0,0,1,0-2.6,5.1,5.1,0,0,1,.9-1.6c.1,0,.1-.1,0-.1h-.1a5.1,5.1,0,0,0-.9,1.6,4.5,4.5,0,0,0,0,2.8h0l2.5-.8h-.1a4.3,4.3,0,0,1,0-1.6,2.7,2.7,0,0,1,.9-1.2,2.1,2.1,0,0,1,1.2-.4,1.2,1.2,0,0,1,.9.5h.1Z"/>
      <path id="Path_117" data-name="Path 117" class="cls-9" d="M68.3,64.5h0L67.1,63h0a3.8,3.8,0,0,1-2.5.7,3.3,3.3,0,0,1-2.7-1.5h-.1c0,.1-.1.1,0,.1a3.7,3.7,0,0,0,2.8,1.6,4.3,4.3,0,0,0,2.5-.7l1.1,1.4h.1Z"/>
      <path id="Path_118" data-name="Path 118" class="cls-9" d="M69.8,60.1h.1a5.5,5.5,0,0,0,0-3.1h0l-2.6.6h0a4.1,4.1,0,0,1,.1,1.9A2.8,2.8,0,0,1,65,61.4a1.3,1.3,0,0,1-1.1-.6,1,1,0,0,1-.3-1h-.2a2,2,0,0,0,.3,1.1,1.7,1.7,0,0,0,1.3.7,2.8,2.8,0,0,0,2.5-2,3.4,3.4,0,0,0,0-2l2.3-.5a4.8,4.8,0,0,1-.1,2.9,5.1,5.1,0,0,1-.9,1.6c-.1,0-.1.1,0,.1h.1A5.1,5.1,0,0,0,69.8,60.1Z"/>
    </g>
    <g id="Group_540" data-name="Group 540">
      <g id="Group_539" data-name="Group 539">
        <g id="Group_538" data-name="Group 538">
          <g id="Group_537" data-name="Group 537">
            <g id="Group_536" data-name="Group 536">
              <g id="Group_535" data-name="Group 535">
                <path id="Path_119" data-name="Path 119" class="cls-2" d="M34.5,66.9c-1.4-3,1.2-2.3,1.2-2.3-.4-2.3-.5-3.9,0-4a1.1,1.1,0,0,1,1.1.3c.9.9,3.9,5.4,5.5,7.1s2.4-.1,2.3-1.6,0-2.4,1.1-.7a23,23,0,0,1,1.5,3.6l8.1,2.6L49.5,82.2,39.3,77.7a19.4,19.4,0,0,1-2.2-1.9L36,75.1a11.8,11.8,0,0,1-2.7-3.3c-1.6-3.2,0-2.6,0-2.6C32.1,65.7,34.5,66.9,34.5,66.9Z"/>
              </g>
            </g>
          </g>
        </g>
      </g>
    </g>
    <g id="Group_541" data-name="Group 541">
      <path id="Path_120" data-name="Path 120" class="cls-2" d="M47.2,69.3S55.3,68,73,68.8c0,0-1.2,6.4-1.6,6.6s-11.6,2.2-12.6,2.4-5.4,1.1-5.6,1.1l-5.9-.5C47.3,78.2,47.2,69.3,47.2,69.3Z"/>
    </g>
    <g id="Group_542" data-name="Group 542">
      <path id="Path_121" data-name="Path 121" class="cls-2" d="M46.7,78.2s-12.2-4.3-31-3.4S34.3,87.1,34.3,87.1Z"/>
    </g>
    <g id="Group_545" data-name="Group 545">
      <g id="Group_544" data-name="Group 544">
        <g id="Group_543" data-name="Group 543">
          <path id="Path_122" data-name="Path 122" class="cls-16" d="M37.6,67.5a.2.2,0,0,0,.2-.2h-.1a17.3,17.3,0,0,1-1.9-2.8c-.1-.1-.2-.2-.3-.1s-.1.1-.1.2a20.2,20.2,0,0,0,2.1,3Z"/>
        </g>
      </g>
    </g>
    <g id="Group_548" data-name="Group 548">
      <g id="Group_547" data-name="Group 547">
        <g id="Group_546" data-name="Group 546">
          <path id="Path_123" data-name="Path 123" class="cls-16" d="M35.2,71.8c.1,0,.2-.1.1-.2h0a10.8,10.8,0,0,1-1.8-2.4h-.3a.2.2,0,0,0,0,.3A10.5,10.5,0,0,0,35,71.8Z"/>
        </g>
      </g>
    </g>
    <g id="Group_551" data-name="Group 551">
      <g id="Group_550" data-name="Group 550">
        <g id="Group_549" data-name="Group 549">
          <path id="Path_124" data-name="Path 124" class="cls-16" d="M36.4,69.5c.1,0,.1-.1.1-.2h0a6.9,6.9,0,0,1-1.8-2.4h-.3c-.1,0-.1.1-.1.2h0a9.2,9.2,0,0,0,1.9,2.5Z"/>
        </g>
      </g>
    </g>
    <g id="Group_559" data-name="Group 559">
      <g id="Group_552" data-name="Group 552">
        <path id="Path_125" data-name="Path 125" d="M47.2,69.5h0l7.7-.7c5.5-.5,18.2.1,18.3.1h.2l-.2-.2c-.1,0-12.8-.6-18.4-.1s-7.6.7-7.6.7a.2.2,0,0,0-.2.2Z"/>
      </g>
      <g id="Group_553" data-name="Group 553">
        <path id="Path_126" data-name="Path 126" d="M66.9,84.7a26.5,26.5,0,0,0,6.3-.7c6.7-1.5,10.7-5.1,11.6-7.8a.2.2,0,0,0-.2-.2h-.1c-.9,2.7-4.8,6.2-11.3,7.6s-11.7.3-15.9-.4l-1.1-.2c-3.3-.6-13.2-4.7-17.3-6.5a12.4,12.4,0,0,1-4.8-3.7c0-.1-.1-.1-.2-.1s-.1.2,0,.2h0a12.9,12.9,0,0,0,4.8,3.8c4.2,1.7,14.1,5.9,17.5,6.5l1.1.2A51.8,51.8,0,0,0,66.9,84.7Z"/>
      </g>
      <g id="Group_554" data-name="Group 554">
        <path id="Path_127" data-name="Path 127" d="M37.1,76a.2.2,0,0,0,.2-.2h-.1c-.2,0-13.1-1.5-17-1.2a.2.2,0,0,0-.2.2h.2C24.1,74.5,37,76,37.1,76Z"/>
      </g>
      <g id="Group_555" data-name="Group 555">
        <path id="Path_128" data-name="Path 128" d="M22.2,39.1h0a.2.2,0,0,0,.2-.2L22,34.7c0-.1-.1-.2-.2-.1s-.1,0-.1.1L22,39Z"/>
      </g>
      <g id="Group_556" data-name="Group 556">
        <path id="Path_129" data-name="Path 129" d="M21.3,93.6a77.9,77.9,0,0,0,25.2-4.4V89h-.3c-.1.1-15.8,6.3-33.3,3.9-.1,0-6.3-1.1-7.9-3.5a50.2,50.2,0,0,1-2.8-6.1.3.3,0,0,0-.1-.2c-.1.1-.2.1-.2.2H2a46.9,46.9,0,0,0,2.9,6.2c1.6,2.5,7.8,3.5,8,3.6A59.2,59.2,0,0,0,21.3,93.6Z"/>
      </g>
      <g id="Group_557" data-name="Group 557">
        <path id="Path_130" data-name="Path 130" d="M5.8,87.7c.1,0,.1-.1.1-.2h0L4.7,84.8H4.5c-.1.1-.2.1-.1.2h0l1.3,2.6C5.7,87.7,5.7,87.7,5.8,87.7Z"/>
      </g>
      <g id="Group_558" data-name="Group 558">
        <path id="Path_131" data-name="Path 131" d="M7.3,88.5a.2.2,0,0,0,.2-.2h0l-1.6-3H5.7c0,.1-.1.2,0,.2l1.5,3Z"/>
      </g>
    </g>
    <path id="Path_132" data-name="Path 132" class="cls-2" d="M46.6,70a3.1,3.1,0,0,0,.5-1c-.3-1.9-1.1-3.9-1.8-4.4s-1.1-.1-1,1.3a9.3,9.3,0,0,1-.8,4.9C44.1,71.4,46.6,70,46.6,70Z"/>
  </g>
</svg>
