<svg id="Layer_1" data-name="Layer 1" xmlns="http://www.w3.org/2000/svg" xmlns:xlink="http://www.w3.org/1999/xlink" width="200" height="200" viewBox="0 0 200 200">
  <defs>
    <style>
      .cls-1 {
        fill: none;
      }

      .cls-2 {
        fill: url(#linear-gradient);
      }

      .cls-3 {
        fill: #b34fae;
      }

      .cls-4 {
        fill: url(#linear-gradient-2);
      }
    </style>
    <linearGradient id="linear-gradient" x1="9.94" y1="171.72" x2="15.25" y2="165.19" gradientTransform="matrix(10.91, 0, 0, -10.47, -70.76, 1820.24)" gradientUnits="userSpaceOnUse">
      <stop offset="0" stop-color="#93d8de"/>
      <stop offset="1" stop-color="#65c8d0"/>
    </linearGradient>
    <linearGradient id="linear-gradient-2" x1="5.57" y1="186.21" x2="8.16" y2="183.06" gradientTransform="matrix(22.42, 0, 0, -21.7, -95.24, 4067.3)" xlink:href="#linear-gradient"/>
  </defs>
  <g id="Group_11405" data-name="Group 11405">
    <path id="Path_138" data-name="Path 138" class="cls-1" d="M176.2,116.2c0,18.3-3.8,31.6-11.5,39.7s-18.7,11.9-34,11.9H112.9c-15.4,0-26.6-3.9-34.1-11.9s-11.4-21-11.5-38.7h6c16.5,0,29.1-4.9,37.5-14.6S122.3,81.1,122.7,64h8c15.3,0,26.4,4,34,12S176.2,97.8,176.2,116.2Z"/>
    <path id="Path_139" data-name="Path 139" class="cls-1" d="M91.8,39.4a21.4,21.4,0,0,0-1.3-1.9c-3-3.5-8.8-5.3-17.2-5.3H55.5q-12.7,0-17.4,5.4c-2,2.3-5.3,8.6-5.3,24S36,82.8,38,85.1a13.6,13.6,0,0,0,5.4,3.5A68.1,68.1,0,0,1,59.2,57.7,63.4,63.4,0,0,1,91.8,39.4Z"/>
    <path id="Path_141" data-name="Path 141" class="cls-2" d="M122.7,64c-.4,17.1-4.3,29.8-11.9,38.6s-21,14.6-37.5,14.6h-6v-1a83.9,83.9,0,0,1,3.5-25.9A37.7,37.7,0,0,1,78.9,76a36,36,0,0,1,16.8-9.9A62.4,62.4,0,0,1,112.9,64Z"/>
    <path id="Path_140" data-name="Path 140" class="cls-3" d="M179.8,57.7C167.1,44.1,149,37.2,126.2,37.2H115.3a85.8,85.8,0,0,1,2.9,24.2V64h8c15.3,0,26.4,4,34,12s11.6,21.8,11.6,40.2-3.9,31.6-11.6,39.7-18.6,11.9-34,11.9H108.4c-15.4,0-26.5-3.9-34.1-11.9s-11.3-21-11.5-38.7H51a68.9,68.9,0,0,1-15-1.6v.6c0,25.4,6.3,45,18.8,58.2s30.8,20.2,53.6,20.2h17.8c22.8,0,40.9-6.8,53.6-20.2s18.8-32.8,18.8-58.2S192.3,71,179.8,57.7Z"/>
    <path id="Path_142" data-name="Path 142" class="cls-4" d="M115.3,37.2h-6.9a93.4,93.4,0,0,0-21.1,2.2A63.4,63.4,0,0,0,54.7,57.7,68.1,68.1,0,0,0,38.9,88.6a122.1,122.1,0,0,0-3,27,41.1,41.1,0,0,1-22.8-13C5.2,93.4,1.4,80,1.4,61.6S5.2,29.4,13.2,20.1,34.3,5.4,51,5.4H68.8c16.7,0,29.4,4.9,37.7,14.8A44.5,44.5,0,0,1,115.3,37.2Z"/>
  </g>
</svg>
